Units are S.I. units (second, meters, Newtons, ...)
Angles are in degrees.
name walk
datarows 41
datacolumns 22
range 50.00000 90.00000
endheader
time Pelvis_Z Pelvis_X Pelvis_Y FemurR_Z FemurR_X FemurR_Y TibiaR_Z TibiaR_X TibiaR_Y TalusR_Z TalusR_X TalusR_Y FemurL_Z FemurL_X FemurL_Y TibiaL_Z TibiaL_X TibiaL_Y TalusL_Z TalusL_X TalusL_Y
50.00000 16.96270 -0.13750 0.19517 2.05976 -3.44425 -3.20561 8.85663 -3.47831 2.62456 16.45540 2.80226 7.14960 37.68060 3.83849 -12.72940 -1.47387 -0.60460 -9.14738 0.77115 -6.43245 15.45040
51.00000 16.98510 -0.12238 0.13850 1.58878 -3.83390 -3.54874 9.50927 -3.75539 2.70674 16.16750 3.69377 7.72616 37.63180 4.06164 -12.63570 -0.53900 -0.63260 -9.85632 0.38409 -6.82660 15.12110
52.00000 17.03330 -0.10572 0.07040 1.15810 -4.23543 -3.94057 10.27060 -4.07491 2.66083 15.70570 4.66126 8.37693 37.61240 4.38897 -12.54160 0.60095 -0.66244 -10.60940 -0.69339 -7.55154 14.84110
53.00000 17.11495 -0.08455 -0.01165 0.77890 -4.63734 -4.31482 11.16510 -4.43329 2.43457 15.02710 5.69773 9.08990 37.63420 4.82094 -12.37360 1.82616 -0.69201 -11.34290 -2.30438 -8.67726 14.55230
54.00000 17.23280 -0.05867 -0.10760 0.47968 -5.03340 -4.57671 12.23340 -4.82152 1.94356 14.07270 6.79522 9.86336 37.72780 5.35583 -12.07970 3.15540 -0.73704 -11.78500 -3.94915 -9.94496 14.08610
55.00000 17.37135 -0.03123 -0.21075 0.29649 -5.42526 -4.64921 13.53350 -5.22689 1.10351 12.77610 7.93587 10.70750 37.90890 5.99176 -11.67270 4.70691 -0.80842 -11.59460 -5.16020 -10.90590 13.21740
56.00000 17.49405 -0.00575 -0.31156 0.25783 -5.82033 -4.52142 15.13440 -5.62630 -0.12125 11.07530 9.06554 11.65040 38.13860 6.72942 -11.23020 6.52360 -0.90555 -10.61930 -5.73343 -11.34020 11.85190
57.00000 17.55795 0.01557 -0.40137 0.38104 -6.22948 -4.24571 17.09870 -5.98776 -1.70018 8.91847 10.06750 12.74140 38.31860 7.55932 -10.87490 8.48370 -1.01967 -8.99443 -5.66054 -11.26780 10.09110
58.00000 17.53335 0.03155 -0.47249 0.68315 -6.66728 -3.89274 19.46040 -6.28089 -3.54746 6.27310 10.75660 14.03080 38.32820 8.45078 -10.73370 10.37020 -1.14477 -7.07468 -5.03681 -10.83470 8.23327
59.00000 17.41790 0.03915 -0.51856 1.19520 -7.14894 -3.52714 22.21160 -6.49253 -5.51010 3.15905 10.91170 15.52640 38.07460 9.35724 -10.83980 11.96860 -1.27380 -5.32218 -4.03136 -10.25870 6.72836
60.00000 17.23415 0.03420 -0.53597 1.95548 -7.67308 -3.19903 25.30100 -6.64488 -7.35117 -0.29904 10.36190 17.14550 37.52140 10.22530 -11.08210 13.12950 -1.37913 -4.14579 -2.84838 -9.72112 5.94490
61.00000 17.01310 0.01780 -0.52265 2.98837 -8.20760 -2.95041 28.65030 -6.80020 -8.75190 -3.82208 9.09236 18.70100 36.68620 11.00630 -11.28030 13.80620 -1.41971 -3.71254 -1.66630 -9.29163 5.92215
62.00000 16.77965 -0.00435 -0.47934 4.28814 -8.70601 -2.81730 32.17380 -7.04177 -9.40870 -6.98843 7.30679 19.98840 35.62390 11.66880 -11.29380 14.05380 -1.37048 -3.88938 -0.59057 -8.96133 6.37071
63.00000 16.54625 -0.02995 -0.41196 5.81531 -9.12867 -2.80937 35.78850 -7.43380 -9.19611 -9.33991 5.36431 20.90230 34.40270 12.19840 -11.07360 13.98070 -1.23779 -4.37562 0.34296 -8.70481 6.89620
64.00000 16.31565 -0.06335 -0.32994 7.51326 -9.44189 -2.89689 39.41070 -7.99352 -8.27297 -10.55430 3.64462 21.47000 33.08310 12.58640 -10.67150 13.69790 -1.05559 -4.87091 1.14080 -8.50185 7.21032
65.00000 16.08900 -0.10955 -0.24439 9.32620 -9.60600 -3.02350 42.94560 -8.68755 -7.03483 -10.60430 2.46095 21.78020 31.71920 12.82520 -10.22730 13.29410 -0.87355 -5.17440 1.82948 -8.34011 7.23330
66.00000 15.87375 -0.16770 -0.16744 11.20730 -9.57789 -3.13848 46.29300 -9.44777 -5.90928 -9.77100 1.96410 21.88300 30.36390 12.91180 -9.90996 12.82570 -0.73749 -5.23312 2.43938 -8.21033 7.09004
67.00000 15.68600 -0.23015 -0.10908 13.13020 -9.32977 -3.21958 49.37220 -10.19990 -5.15716 -8.43539 2.01502 21.78570 29.06080 12.85380 -9.83693 12.31750 -0.66957 -5.12740 2.99538 -8.09752 7.00608
68.00000 15.54760 -0.28465 -0.07404 15.09100 -8.86398 -3.27102 52.13930 -10.88550 -4.82960 -6.84038 2.24628 21.50440 27.83710 12.67420 -10.04330 11.77570 -0.66642 -4.97479 3.51415 -7.98214 7.16460
69.00000 15.47585 -0.31955 -0.06207 17.08890 -8.21417 -3.30288 54.57810 -11.46140 -4.83447 -5.05692 2.32491 21.05000 26.69940 12.41370 -10.47800 11.20540 -0.70600 -4.84466 4.00515 -7.84876 7.61084
70.00000 15.47200 -0.33015 -0.06918 19.10510 -7.43646 -3.32039 56.67450 -11.88810 -5.02409 -3.09083 2.13829 20.39040 25.63180 12.12190 -11.02910 10.62220 -0.76031 -4.72742 4.47283 -7.69251 8.24806
71.00000 15.51775 -0.32160 -0.08950 21.10060 -6.59640 -3.33301 58.40410 -12.14060 -5.27606 -0.96885 1.76317 19.48210 24.59880 11.84210 -11.54370 10.04920 -0.80463 -4.57875 4.91836 -7.51800 8.90384
72.00000 15.58400 -0.30297 -0.11639 23.02340 -5.75460 -3.35205 59.73520 -12.21070 -5.54614 1.23572 1.32935 18.34030 23.56660 11.60240 -11.88080 9.50895 -0.82700 -4.35375 5.33980 -7.33472 9.41067
73.00000 15.64450 -0.28061 -0.14119 24.82390 -4.95742 -3.36934 60.63220 -12.08910 -5.86341 3.41054 0.92769 17.04970 22.51850 11.41490 -11.96090 9.01494 -0.82869 -4.02891 5.73399 -7.15513 9.66650
74.00000 15.68060 -0.25953 -0.15474 26.47150 -4.23282 -3.36282 61.06540 -11.77120 -6.28000 5.43023 0.58898 15.73880 21.44460 11.27380 -11.76690 8.56579 -0.81580 -3.63552 6.10316 -6.98969 9.66971
75.00000 15.68220 -0.24496 -0.15227 27.95250 -3.58839 -3.30763 61.02090 -11.26470 -6.84019 7.19048 0.31107 14.53670 20.33880 11.15670 -11.34760 8.15008 -0.79683 -3.24142 6.46061 -6.84016 9.51108
76.00000 15.64875 -0.23908 -0.13216 29.26730 -3.01314 -3.18531 60.50610 -10.59140 -7.55763 8.63778 0.08808 13.51810 19.20110 11.03370 -10.80610 7.75109 -0.77856 -2.90250 6.82841 -6.70173 9.31666
77.00000 15.58690 -0.24028 -0.09585 30.42770 -2.48603 -2.98332 59.54860 -9.77950 -8.40550 9.78423 -0.07949 12.68680 18.04010 10.87970 -10.27230 7.35489 -0.76522 -2.62432 7.22174 -6.56586 9.18585
78.00000 15.50600 -0.24412 -0.04802 31.44980 -1.98580 -2.70471 58.18590 -8.86376 -9.33001 10.68580 -0.17994 12.00600 16.87420 10.68230 -9.85664 6.95822 -0.75918 -2.37278 7.63413 -6.41888 9.16638
79.00000 15.41635 -0.24564 0.00556 32.35230 -1.50027 -2.37964 56.45820 -7.89153 -10.27190 11.39840 -0.19765 11.43630 15.72230 10.44210 -9.59990 6.56805 -0.75825 -2.11562 8.04809 -6.24918 9.25280
80.00000 15.32675 -0.24261 0.05820 33.15310 -1.02916 -2.04843 54.40260 -6.91516 -11.19300 11.94540 -0.12402 10.95370 14.59830 10.16870 -9.48129 6.19948 -0.75817 -1.84673 8.45888 -6.06347 9.41648
81.00000 15.24225 -0.23442 0.10458 33.86350 -0.57957 -1.74681 52.04920 -5.98076 -12.07810 12.31820 0.02605 10.55110 13.51090 9.87833 -9.47159 5.87330 -0.75913 -1.57362 8.87877 -5.88919 9.64371
82.00000 15.16375 -0.22121 0.14273 34.48330 -0.16246 -1.50540 49.41810 -5.12010 -12.91180 12.50020 0.18690 10.22320 12.46570 9.58838 -9.55773 5.60963 -0.76772 -1.27896 9.32404 -5.74742 9.91793
83.00000 15.09335 -0.20463 0.17171 35.00790 0.21046 -1.34749 46.52390 -4.35152 -13.65490 12.48180 0.26485 9.94858 11.47210 9.31305 -9.72918 5.42322 -0.79414 -0.91492 9.80226 -5.62987 10.19710
84.00000 15.04070 -0.18674 0.19033 35.44630 0.53279 -1.29889 43.38600 -3.69358 -14.24490 12.26190 0.21577 9.69432 10.54460 9.05866 -9.95604 5.32257 -0.84621 -0.44023 10.31100 -5.51648 10.42950
85.00000 15.01645 -0.16876 0.19826 35.81850 0.80367 -1.38363 40.03440 -3.16589 -14.61900 11.84890 0.06076 9.43803 9.69127 8.82533 -10.19020 5.30790 -0.92421 0.14564 10.84430 -5.39033 10.57940
86.00000 15.02550 -0.15175 0.19657 36.13480 1.02234 -1.58973 36.50150 -2.76616 -14.74330 11.25100 -0.14886 9.17052 8.90742 8.61234 -10.38350 5.36999 -1.02115 0.80084 11.39600 -5.23840 10.64220
87.00000 15.06815 -0.13677 0.18755 36.39130 1.18897 -1.87130 32.81360 -2.47060 -14.63510 10.46060 -0.35994 8.90703 8.18112 8.41779 -10.49780 5.49353 -1.12685 1.46208 11.96030 -5.05574 10.64050
88.00000 15.14160 -0.12222 0.17546 36.58080 1.30837 -2.18161 28.99640 -2.25978 -14.36210 9.46078 -0.54358 8.69485 7.49682 8.23991 -10.51920 5.66078 -1.23281 2.07554 12.53000 -4.84098 10.60980
89.00000 15.23995 -0.10616 0.16300 36.69810 1.38696 -2.49299 25.08670 -2.12650 -14.00580 8.25948 -0.73357 8.58904 6.83928 8.07557 -10.45780 5.85735 -1.33491 2.61312 13.09530 -4.59455 10.58410
90.00000 15.35375 -0.08881 0.14836 36.73610 1.43159 -2.78263 21.13480 -2.05627 -13.63770 6.91667 -1.01922 8.61834 6.19605 7.91716 -10.33670 6.07625 -1.43367 3.07239 13.64360 -4.32080 10.59390
